<svg width="32" height="27" viewBox="0 0 30 25" fill="none" xmlns="http://www.w3.org/2000/svg">
<path d="M4.51427 13.8376L14.9195 24.2428C15.5739 24.8973 15.5739 25.9444 14.9195 26.5334C14.2651 27.1224 13.218 27.1878 12.629 26.5334L1.04499 14.9494C0.390547 14.295 0.390547 13.2479 1.04499 12.6589L13.1525 0.617159C13.4797 0.28994 13.8724 0.15905 14.3305 0.15905C14.7886 0.15905 15.1813 0.28994 15.5085 0.617159C16.1629 1.2716 16.1629 2.3187 15.5085 2.9077L4.51427 13.8376Z" fill="#EF6010"/>
<path d="M30.3639 15.2129L12.694 15.2129C11.7778 15.2129 11.0579 14.493 11.0579 13.5768C11.0579 12.6606 11.7778 11.9407 12.694 11.9407L30.3639 11.9407C31.2801 11.9407 32 12.6606 32 13.5768C32 14.493 31.2801 15.2129 30.3639 15.2129Z" fill="#EF6010"/>
</svg>
