<svg width="22" height="19" viewBox="0 0 22 19" fill="none" xmlns="http://www.w3.org/2000/svg">
<path d="M19.0151 9.61149L11.9049 2.50124C11.4577 2.05404 11.4577 1.33852 11.9049 0.936039C12.3521 0.533558 13.0676 0.488838 13.4701 0.936039L21.3858 8.85176C21.833 9.29896 21.833 10.0145 21.3858 10.417L13.1123 18.6455C12.8887 18.8691 12.6204 18.9585 12.3074 18.9585C11.9943 18.9585 11.726 18.8691 11.5024 18.6455C11.0552 18.1983 11.0552 17.4827 11.5024 17.0803L19.0151 9.61149Z" fill="#EF6010"/>
<path d="M1.35116 8.67163L13.4256 8.67163C14.0517 8.67163 14.5436 9.16355 14.5436 9.78963C14.5436 10.4157 14.0517 10.9076 13.4256 10.9076L1.35116 10.9076C0.725075 10.9076 0.233154 10.4157 0.233154 9.78963C0.233154 9.16355 0.725075 8.67163 1.35116 8.67163Z" fill="#EF6010"/>
</svg>
